<svg xmlns="http://www.w3.org/2000/svg" width="200.601" height="158.908" viewBox="0 0 200.601 158.908"><defs><style>.a{fill:#29292e;}.b{fill:#7159c1;}.c{fill:#fff;}</style></defs><g transform="translate(-4720 -8171)"><g transform="translate(4719.999 8171)"><path class="a" d="M61.659,158.909a6.117,6.117,0,1,1,0-12.234H79c4.979,0,6.116-3.166,6.116-6.117a6.116,6.116,0,0,0-4.962-6.009c-17.325-.048-32.379-.109-33.785-.109H24.825a6.117,6.117,0,0,1,0-12.234H58.533a6.117,6.117,0,0,0,.643-12.2H42.431a5.839,5.839,0,0,1-.643-.035h-4.3a6.117,6.117,0,1,1,0-12.234H60.4a6.116,6.116,0,0,0-.637-12.2H51.773c-.064,0-.122-.012-.187-.012H15.465a6.114,6.114,0,1,1,0-12.228H42.147a6.117,6.117,0,0,0,0-12.235H6.117a6.12,6.12,0,0,1,0-12.24H54.311A6.116,6.116,0,0,0,55.463,36.7H47.556a6.2,6.2,0,0,1-1.152-.111H42.615a6.117,6.117,0,1,1,0-12.234c15.9,0,33.561.022,52.56.046a6.115,6.115,0,0,0-.857-12.171H76.985A6.117,6.117,0,0,1,76.985,0h51.1a6.116,6.116,0,1,1,0,12.233h-7.992a6.117,6.117,0,0,0-.625,12.2c16.632.019,34.079.034,52.1.034a6.117,6.117,0,1,1,0,12.234H123.379a6.116,6.116,0,0,0-1.152,12.123h35.955a6.2,6.2,0,0,1,1.152.112h3.784a6.117,6.117,0,1,1,0,12.234H138.944a6.116,6.116,0,0,0,1.146,12.123h8.739c.065,0,.123.012.187.012h45.469a6.117,6.117,0,0,1,0,12.235h-36.03a6.117,6.117,0,1,0,0,12.234h26.682a6.117,6.117,0,0,1,0,12.234H146.29a6.117,6.117,0,0,0-.643,12.2h7.4a5.844,5.844,0,0,1,.644.035h4.3a6.117,6.117,0,1,1,0,12.234H135.073c-.745.076-6.106.113-13.859.126a6.117,6.117,0,0,0,1.395,12.073h18.2a6.117,6.117,0,0,1,0,12.234Z" transform="translate(200.602 158.909) rotate(180)"/></g><g transform="translate(4158 -355)"><rect class="b" width="104.123" height="104.123" rx="5" transform="translate(610 8553)"/><path class="c" d="M40.938,39.173a4.223,4.223,0,0,0-.451-8.421h-.15a4.206,4.206,0,0,0-4.06,4.361,4.318,4.318,0,0,0,1.2,2.782c-2.556,5.038-6.466,8.722-12.33,11.8A20.332,20.332,0,0,1,12.894,52.03a10.452,10.452,0,0,1-7.669-4.436,11.044,11.044,0,0,1-.6-11.654,17.7,17.7,0,0,1,5.112-6.015c-.3-.977-.752-2.631-.977-3.834C-2.143,33.985-1.015,44.662,2.293,49.7c2.481,3.76,7.518,6.09,13.082,6.09a18.493,18.493,0,0,0,4.511-.526,28.853,28.853,0,0,0,21.052-16.09ZM54.171,29.85c-5.714-6.692-14.135-10.376-23.759-10.376h-1.2a4.132,4.132,0,0,0-3.684-2.256h-.15a4.212,4.212,0,0,0,.15,8.421h.15a4.235,4.235,0,0,0,3.684-2.556h1.353A28.656,28.656,0,0,1,46.727,27.97,20.141,20.141,0,0,1,54.7,37.594a10.422,10.422,0,0,1-.15,8.872,11.037,11.037,0,0,1-10.3,6.165,19.23,19.23,0,0,1-7.368-1.579c-.827.752-2.331,1.955-3.383,2.707a23.212,23.212,0,0,0,9.7,2.331c7.218,0,12.556-3.985,14.586-7.97,2.18-4.361,2.03-11.88-3.609-18.271Zm-38.194,10.6a4.223,4.223,0,0,0,4.21,4.06h.15a4.212,4.212,0,0,0-.15-8.421h-.15a1.281,1.281,0,0,0-.526.075A27.548,27.548,0,0,1,15.6,19.473,20.169,20.169,0,0,1,20.037,7.819c2.18-2.782,6.391-4.135,9.248-4.21,7.969-.15,11.353,9.774,11.578,13.759.977.225,2.631.752,3.759,1.128C43.72,6.316,36.2,0,28.984,0,22.217,0,15.977,4.887,13.5,12.105c-3.458,9.624-1.2,18.872,3.007,26.165a3.378,3.378,0,0,0-.526,2.181Z" transform="translate(632.458 8577.472)"/></g></g></svg>