<svg xmlns="http://www.w3.org/2000/svg" width="199.339" height="157.909" viewBox="0 0 199.339 157.909"><defs><style>.a{fill:#29292e;}.b{fill:#8cc84b;}.c{fill:#fff;}</style></defs><g transform="translate(2174 2334)"><g transform="translate(-2174 -2334)"><path class="a" d="M61.271,157.909a6.079,6.079,0,1,1,0-12.157H78.5c4.948,0,6.079-3.146,6.079-6.079a6.078,6.078,0,0,0-4.931-5.971c-17.216-.048-32.175-.108-33.572-.108H24.732a6.079,6.079,0,0,1,0-12.157H58.164a6.078,6.078,0,0,0,.64-12.122H42.164a5.791,5.791,0,0,1-.64-.035H37.254a6.078,6.078,0,1,1,0-12.156H60.017A6.078,6.078,0,0,0,59.384,85H51.447c-.064,0-.121-.011-.185-.011H15.368a6.076,6.076,0,1,1,0-12.152H41.882a6.079,6.079,0,1,0,0-12.157H6.079a6.081,6.081,0,0,1,0-12.163h47.89a6.078,6.078,0,0,0,1.145-12.047H47.257a6.126,6.126,0,0,1-1.145-.111H42.347a6.079,6.079,0,1,1,0-12.157c15.807,0,33.349.022,52.231.046a6.077,6.077,0,0,0-.852-12.093H76.5A6.078,6.078,0,0,1,76.5,0H127.28a6.078,6.078,0,0,1,0,12.156h-7.942a6.078,6.078,0,0,0-.624,12.124c16.53.019,33.864.034,51.779.034a6.079,6.079,0,0,1,0,12.157H122.6a6.078,6.078,0,0,0-1.145,12.047h35.729a6.126,6.126,0,0,1,1.145.111h3.76a6.078,6.078,0,1,1,0,12.156H138.069a6.077,6.077,0,0,0,1.139,12.047h8.684c.064,0,.122.012.185.012h45.183a6.078,6.078,0,1,1,0,12.156h-35.8a6.079,6.079,0,0,0,0,12.157h26.514a6.079,6.079,0,0,1,0,12.157h-38.6a6.078,6.078,0,0,0-.639,12.122h7.351a5.762,5.762,0,0,1,.639.035h4.271a6.079,6.079,0,0,1,0,12.157H134.223c-.74.076-6.067.113-13.771.125a6.078,6.078,0,0,0,1.385,12h18.084a6.079,6.079,0,0,1,0,12.157Z" transform="translate(199.339 157.909) rotate(180)"/></g><g transform="translate(-2736 -9130)"><rect class="b" width="105.368" height="105.368" rx="5" transform="translate(609 6822)"/><g transform="translate(639 6900.742) rotate(-90)"><g transform="translate(0)"><path class="c" d="M51.742,7.959a7.62,7.62,0,0,0-10.56-1.923l-17.56,12.3-6.385-4.471a9.233,9.233,0,1,0-3.886,3.654l7.821,5.476-7.82,5.475a9.243,9.243,0,1,0,3.886,3.654l6.385-4.471L41.183,39.942a7.619,7.619,0,0,0,10.56-1.923L30.276,22.989ZM9.26,14.049A4.789,4.789,0,1,1,14.049,9.26,4.79,4.79,0,0,1,9.26,14.049Zm0,27.459a4.789,4.789,0,1,1,4.789-4.789A4.79,4.79,0,0,1,9.26,41.508Z"/></g></g></g></g></svg>